# xmcd CD database file
#
# Track frame offsets:
#	150
#	19771
#	40193
#	61884
#	90099
#	113509
#	138021
#	157323
#	181836
#	204543
#
# Disc length: 3019 seconds
#
# Revision: 0
# Processed by: cddbd v1.5.2PL0 Copyright (c) Steve Scherf et al.
# Submitted via: CDex 1.81
#
DISCID=740bc90a
DTITLE=Dominic Amato - Fresh from the groove
DYEAR=2009
DGENRE=Jazz
TTITLE0=Exciting Times
TTITLE1=Nico's Smile
TTITLE2=Fresh from the Groove
TTITLE3=Greezy
TTITLE4=Jamaica
TTITLE5=Still Here With You
TTITLE6=Jazzy's Flow
TTITLE7=Out the Gate
TTITLE8=Letsjuschill
TTITLE9=My Luvsounds Juslikethis (For Wifey)
EXTD=YEAR: 2009
EXTT0=
EXTT1=
EXTT2=
EXTT3=
EXTT4=
EXTT5=
EXTT6=
EXTT7=
EXTT8=
EXTT9=
PLAYORDER=
